<svg width="820" height="520" viewBox="0 0 820 520" fill="none" xmlns="http://www.w3.org/2000/svg">
<path fill-rule="evenodd" clip-rule="evenodd" d="M289.536 318.071C286.746 316.385 288.164 317.302 284.967 315.925C277.098 312.527 265.906 308.668 251.398 304.346C230.403 297.862 213.27 291.379 199.995 284.896C186.722 278.411 175.299 268.841 165.729 256.185C156.157 243.527 151.371 227.009 151.371 206.632C151.371 176.376 162.332 152.683 184.251 135.547C206.169 118.411 234.725 109.845 269.919 109.845C305.73 109.845 334.593 118.411 356.512 135.547C370.612 146.569 380.495 160.371 386.165 176.946L366.093 207.096H306.04C305.422 196.599 301.562 188.34 294.461 182.321C287.36 176.3 278.255 173.289 267.142 173.289C257.572 173.289 249.853 175.838 243.987 180.93C238.12 186.026 235.189 193.356 235.189 202.926C235.189 213.425 240.129 221.607 250.007 227.472C259.885 233.338 275.37 239.53 296.314 246.46C317.353 253.419 321.318 254.033 334.434 260.516L289.536 318.071ZM467.372 157.549C465.809 157.549 464.283 157.499 462.789 157.398C443.374 192.402 419.638 226.766 398.523 253.573C391.032 263.084 382.916 272.313 371.646 283.992C375.123 287.382 378.416 291.079 381.52 295.083C391.09 307.433 395.874 323.334 395.874 342.783C395.874 361.308 391.166 378.134 381.75 393.263C372.336 408.39 358.673 420.429 340.768 429.383C322.863 438.338 301.718 442.814 277.33 442.814C253.558 442.814 232.254 438.954 213.423 431.236C212.686 430.934 211.954 430.624 211.226 430.31C205.304 434.641 199.353 438.991 198.694 439.463C159.842 467.162 83.4689 516.118 36.4214 499.553C27.1046 496.276 19.9269 485.38 15.7252 478.701C-6.85857 442.786 79.7894 305.515 99.9762 289.729C81.5159 322.306 9.90516 435.928 41.729 474.887C46.7432 481.027 60.62 481.329 80.8495 476.127C117.404 466.73 155.56 436.67 182.543 412.418C177.256 407.79 172.499 402.638 168.274 396.966C157.006 381.839 151.063 363.625 150.447 342.321H234.725C235.96 354.363 240.129 363.545 247.228 369.876C254.329 376.203 263.591 379.368 275.013 379.368C286.744 379.368 296.006 376.667 302.797 371.263C309.589 365.862 312.983 358.376 312.983 348.806C312.983 344.166 312.082 339.991 310.278 336.282L307.486 332.151L307.649 332.008C306.823 330.92 305.899 329.88 304.881 328.891L304.464 328.49C362.371 277.971 408.167 221.185 445.324 153.342C441.189 151.532 437.451 149.135 434.111 146.152C425.605 138.56 421.35 128.839 421.35 116.987C421.35 105.139 425.605 95.3455 434.111 87.5944C442.615 79.8489 453.704 75.9725 467.372 75.9725C468.743 75.9725 470.087 76.0115 471.407 76.0895C471.117 68.3403 469.162 61.6864 465.158 56.477C448.675 35.0339 386.23 75.8109 351.763 107.851C327.762 96.3127 310.341 96.0064 296.837 94.4302C356.065 48.8967 460.738 -12.9799 492.08 33.48C500.692 46.2493 499.793 68.68 495.41 83.434C497.33 84.6686 499.149 86.0553 500.87 87.5944C509.525 95.3455 513.856 105.139 513.856 116.987C513.856 128.839 509.599 138.56 501.096 146.152C492.587 153.747 481.35 157.549 467.372 157.549ZM648.74 185.341H685.651V250.051H648.74V439.622H570.82V250.051H542.565V185.341H570.82V178.047C570.82 146.755 579.551 122.986 597.02 106.732C614.489 90.4758 639.929 82.3497 673.347 82.3497C678.816 82.3497 682.917 82.5001 685.651 82.8064V148.881C671.981 147.971 662.412 150.097 656.942 155.263C651.472 160.427 648.74 169.694 648.74 183.058V185.341ZM722.1 185.341H800.022V439.622H722.1V268.564V250.051V185.341ZM761.288 163.468C747.619 163.468 736.532 159.667 728.026 152.072C719.52 144.479 715.267 134.758 715.267 122.904C715.267 111.059 719.52 101.264 728.026 93.5131C736.532 85.7676 747.619 81.8911 761.288 81.8911C774.964 81.8911 786.127 85.7676 794.785 93.5131C803.44 101.264 807.773 111.059 807.773 122.904C807.773 134.758 803.514 144.479 795.011 152.072C786.502 159.667 775.265 163.468 761.288 163.468ZM506.564 185.341V439.622H428.646V248.102C447.752 229.458 464.263 205.405 477.809 185.341H506.564Z" fill="white"/>
</svg>
